<svg xmlns="http://www.w3.org/2000/svg" width="1200" height="360" viewBox="0 0 1200 360" role="img" aria-labelledby="title desc">
<title id="title">PocketDrop</title><desc id="desc">Desktop and phone connected in one local shared space. Brand illustration.</desc>
<defs><linearGradient id="bg" x2="1" y2="1"><stop stop-color="#101c2c"/><stop offset="1" stop-color="#173c43"/></linearGradient></defs>
<rect width="1200" height="360" rx="28" fill="url(#bg)"/>
<circle cx="1090" cy="80" r="230" fill="#a3f0d9" opacity=".04"/>
<g font-family="Segoe UI,Arial,sans-serif">
<text x="56" y="73" font-size="16" fill="#a3f0d9" letter-spacing="4">LAN SHARING</text>
<text x="52" y="166" font-size="76" font-weight="700" fill="#f4f9ff" letter-spacing="-3">PocketDrop</text>
<text x="56" y="221" font-size="28" fill="#c5dbdf">Your devices. One shared space.</text>
<path d="M56 258h54" stroke="#a3f0d9" stroke-width="4" stroke-linecap="round"/>
<text x="56" y="302" font-size="18" fill="#c5dbdf">SHARED TEXT / SHARED FILES</text></g>
<g stroke="#b7e7de" stroke-width="2" fill="none" stroke-linecap="round" stroke-linejoin="round">
<rect x="741" y="70" width="260" height="176" rx="18" fill="#ffffff" fill-opacity=".06"/>
<path d="M811 274h110m-55-26v26"/>
<rect x="963" y="149" width="110" height="170" rx="20" fill="#19373f"/>
<path d="M1000 163h35m-26 139h18M774 108h110m-110 18h80"/>
<rect x="774" y="164" width="70" height="52" rx="10"/>
<path d="M792 179h17l10 9v13h-27zM987 202h62m-62 17h44m-44 17h52"/>
<path d="M867 190h63m-8-8 8 8-8 8" stroke="#a3f0d9"/></g></svg>